<svg width="256" height="256" viewBox="0 0 256 256" xmlns="http://www.w3.org/2000/svg" role="img" aria-labelledby="title desc">
  <title id="title">Reiss Home Services logo</title>
  <desc id="desc">A modern house mark for Reiss Home Services.</desc>
  <defs>
    <linearGradient id="bg" x1="24" x2="232" y1="24" y2="232" gradientUnits="userSpaceOnUse">
      <stop stop-color="#2663FF"/>
      <stop offset="1" stop-color="#14A17B"/>
    </linearGradient>
    <linearGradient id="roof" x1="128" x2="128" y1="38" y2="206" gradientUnits="userSpaceOnUse">
      <stop stop-color="#FFFFFF"/>
      <stop offset="1" stop-color="#EAF2FF"/>
    </linearGradient>
  </defs>
  <rect x="14" y="14" width="228" height="228" rx="56" fill="#0C1626"/>
  <rect x="20" y="20" width="216" height="216" rx="50" fill="url(#bg)" opacity="0.18"/>
  <path d="M44 112 128 48l84 64v72c0 13.255-10.745 24-24 24H68c-13.255 0-24-10.745-24-24v-72Z" fill="none" stroke="url(#roof)" stroke-width="16" stroke-linecap="round" stroke-linejoin="round"/>
  <path d="M95 206v-53c0-7.732 6.268-14 14-14h38c7.732 0 14 6.268 14 14v53" fill="none" stroke="url(#roof)" stroke-width="16" stroke-linecap="round" stroke-linejoin="round"/>
  <path d="M173 101c-8.67 0-16.431 5.605-19.088 13.539a21.437 21.437 0 0 0 4.561 22.398l-42.257 42.256a11.999 11.999 0 1 1-16.97-16.97l42.256-42.257a21.436 21.436 0 0 0 22.398 4.56c7.934-2.656 13.54-10.417 13.54-19.088l-10.963 10.963a8 8 0 0 1-11.314-11.314L166.126 94.124A21.343 21.343 0 0 0 173 101Z" fill="#FFFFFF" opacity="0.95"/>
</svg>
